# xmcd CD database file
#
# Track frame offsets:
#	150
#	15425
#	40233
#	55438
#	69442
#	84752
#	98612
#	113468
#	126645
#	140546
#	153447
#	164901
#	178407
#	192060
#	205699
#	218622
#	234908
#	249779
#	265521
#	279453
#
# Disc length: 3909 seconds
#
# Revision: 0
# Processed by: cddbd v1.5.1PL0 Copyright (c) Steve Scherf et al.
# Submitted via: CDex 1.51
#
DISCID=0b0f4314
DTITLE=Duke Ellington - Love You Maldy (1928-1952)
DYEAR=2003
DGENRE=Jazz
TTITLE0=Stomp, Look and Listen
TTITLE1=Happy-Go-Lucky Local
TTITLE2=Lady of the Lavender Mist
TTITLE3=Fancy Dan
TTITLE4=On a Turquoise Cloud
TTITLE5=VIP's Boogie
TTITLE6=Jam with Sam
TTITLE7=Snibor
TTITLE8=Jam-a-Ditty
TTITLE9=Smada
TTITLE10=Rock-snippin' at the Blue Note
TTITLE11=Bensonality
TTITLE12=Love You Maldy
TTITLE13=Creole Love Call
TTITLE14=Suddently it Jumped
TTITLE15=Just A-Sittin' and A-Rockin'
TTITLE16=Jack the Bear
TTITLE17=Sepia Panorama
TTITLE18=Harlem Air Shaft
TTITLE19=Pitter Panther Patter
EXTD=YEAR: 2003
EXTT0=
EXTT1=
EXTT2=
EXTT3=
EXTT4=
EXTT5=
EXTT6=
EXTT7=
EXTT8=
EXTT9=
EXTT10=
EXTT11=
EXTT12=
EXTT13=
EXTT14=
EXTT15=
EXTT16=
EXTT17=
EXTT18=
EXTT19=
PLAYORDER=
